<svg viewBox="0 0 102 68" xmlns="http://www.w3.org/2000/svg" xmlns:xlink="http://www.w3.org/1999/xlink"><path fill="#000000" d="M97.0312 0c1.0547 0 2.1094.52734 2.9888 1.23047.703.87891 1.23 1.93359 1.23 2.98828V63.2812c0 1.2305-.527 2.2852-1.23 2.9883-.8794.8789-1.9341 1.2305-2.9888 1.2305H9.84375c-2.8125 0-5.09766-.8789-7.03125-2.8125C.8789 62.7539 0 60.4688 0 57.6562V9.84375c0-1.05469.35156-2.10937 1.23047-2.98828C1.93359 6.15234 2.98828 5.625 4.21875 5.625h7.55855c.5274-1.58203 1.5821-2.98828 2.9883-4.04297C16.1719.52734 17.9297 0 19.6875 0h77.3437zM8.4375 57.6562c0 .3516 0 .7032.35156 1.0547.35156.3516.70313.3516 1.05469.3516.35155 0 .52735 0 .87895-.3516.3515-.3515.5273-.7031.5273-1.0547V14.0625H8.4375v43.5937zm84.375 1.4063V8.4375h-73.125v49.2187l-.1758 1.4063h73.3008zM30.2344 37.9688c-.7032 0-1.2305-.1758-1.5821-.5274-.3515-.3516-.5273-.8789-.5273-1.582v-16.875c0-.5274.1758-1.0547.5273-1.4063.3516-.3515.8789-.7031 1.5821-.7031h23.9062c.5274 0 1.0547.3516 1.4063.7031.3515.3516.7031.8789.7031 1.4063v16.875c0 .7031-.3516 1.2304-.7031 1.582-.3516.3516-.8789.5274-1.4063.5274H30.2344zm4.9218-14.0626v7.0313h14.0626v-7.0313H35.1562zM28.125 48.5156c0 .7032.1758 1.2305.5273 1.5821.3516.3515.8789.5273 1.5821.5273h23.9062c.5274 0 1.0547-.1758 1.4063-.5273.3515-.3516.7031-.8789.7031-1.5821v-4.2187c0-.5274-.3516-1.0547-.7031-1.4063-.3516-.3515-.8789-.7031-1.4063-.7031H30.2344c-.7032 0-1.2305.3516-1.5821.7031-.3515.3516-.5273.8789-.5273 1.4063v4.2187zm33.75 0c0 .7032.1758 1.2305.5273 1.5821.3516.3515.8789.5273 1.5821.5273h18.2812c.5274 0 1.0547-.1758 1.4063-.5273.3515-.3516.7031-.8789.7031-1.5821v-4.2187c0-.5274-.3516-1.0547-.7031-1.4063-.3516-.3515-.8789-.7031-1.4063-.7031H63.9844c-.7032 0-1.2305.3516-1.5821.7031-.3515.3516-.5273.8789-.5273 1.4063v4.2187zm0-25.3125c0 .7031.1758 1.2305.5273 1.5821.3516.3515.8789.5273 1.5821.5273h18.2812c.5274 0 1.0547-.1758 1.4063-.5273.3515-.3516.7031-.879.7031-1.5821v-4.2187c0-.5274-.3516-1.0547-.7031-1.4063-.3516-.3515-.8789-.7031-1.4063-.7031H63.9844c-.7032 0-1.2305.3516-1.5821.7031-.3515.3516-.5273.8789-.5273 1.4063v4.2187zm0 12.6563c0 .7031.1758 1.2304.5273 1.582.3516.3516.8789.5274 1.5821.5274h18.2812c.5274 0 1.0547-.1758 1.4063-.5274.3515-.3516.7031-.8789.7031-1.582v-4.2188c0-.5273-.3516-1.0547-.7031-1.4062-.3516-.3516-.8789-.7032-1.4063-.7032H63.9844c-.7032 0-1.2305.3516-1.5821.7032-.3515.3515-.5273.8789-.5273 1.4062v4.2188z"/></svg>