<svg viewBox="0 0 90 68" xmlns="http://www.w3.org/2000/svg" xmlns:xlink="http://www.w3.org/1999/xlink"><use xlink:href="#path0_fill" transform="translate(0 .5)" fill="#B5B5B5"/><defs><path id="contact-svg-path0_fill" d="M81.5625 0c2.2852 0 4.2187.8789 5.9766 2.46094C89.1211 4.21875 90 6.15234 90 8.4375v50.625c0 2.4609-.8789 4.3945-2.4609 5.9766-1.7579 1.7578-3.6914 2.4609-5.9766 2.4609H8.4375c-2.46094 0-4.39453-.7031-5.97656-2.4609C.70313 63.457 0 61.5234 0 59.0625V8.4375c0-2.28516.70313-4.21875 2.46094-5.97656C4.04297.87891 5.97656 0 8.4375 0h73.125zm0 8.4375H8.4375v7.207c4.043 3.3399 11.9531 9.4922 23.7305 18.6328l1.582 1.4063c2.2852 2.1094 4.2188 3.5156 5.625 4.2187 2.1094 1.5821 4.043 2.2852 5.625 2.2852 1.4062 0 3.3398-.7031 5.625-2.2852 1.4062-.7031 3.1641-2.1093 5.625-4.2187l1.582-1.4063c11.6016-8.9648 19.5118-15.1171 23.7305-18.6328v-7.207zm-73.125 50.625h73.125V26.3672L61.1719 42.5391c-2.9883 2.4609-5.4492 4.2187-7.2071 5.2734-3.164 1.9336-6.1523 2.8125-8.9648 2.8125s-5.9766-.8789-9.1406-2.8125c-1.7578-1.0547-4.2188-2.8125-7.2071-5.2734L8.4375 26.3672v32.6953z"/></defs></svg>