<svg viewBox="0 0 79 91" xmlns="http://www.w3.org/2000/svg" xmlns:xlink="http://www.w3.org/1999/xlink"><path fill="#000000" d="M26.0156 50.625c.5274 0 1.0547-.1758 1.4063-.5273.3515-.3516.7031-.8789.7031-1.5821v-7.0312c0-.5274-.3516-1.0547-.7031-1.4063-.3516-.3515-.8789-.7031-1.4063-.7031h-7.0312c-.7032 0-1.2305.3516-1.5821.7031-.3515.3516-.5273.8789-.5273 1.4063v7.0312c0 .7032.1758 1.2305.5273 1.5821.3516.3515.8789.5273 1.5821.5273h7.0312zM45 48.5156c0 .7032-.3516 1.2305-.7031 1.5821-.3516.3515-.8789.5273-1.4063.5273h-7.0312c-.7032 0-1.2305-.1758-1.5821-.5273-.3515-.3516-.5273-.8789-.5273-1.5821v-7.0312c0-.5274.1758-1.0547.5273-1.4063.3516-.3515.8789-.7031 1.5821-.7031h7.0312c.5274 0 1.0547.3516 1.4063.7031.3515.3516.7031.8789.7031 1.4063v7.0312zm16.875 0c0 .7032-.3516 1.2305-.7031 1.5821-.3516.3515-.8789.5273-1.4063.5273h-7.0312c-.7032 0-1.2305-.1758-1.5821-.5273-.3515-.3516-.5273-.8789-.5273-1.5821v-7.0312c0-.5274.1758-1.0547.5273-1.4063.3516-.3515.8789-.7031 1.5821-.7031h7.0312c.5274 0 1.0547.3516 1.4063.7031.3515.3516.7031.8789.7031 1.4063v7.0312zM45 65.3906c0 .7032-.3516 1.2305-.7031 1.5821-.3516.3515-.8789.5273-1.4063.5273h-7.0312c-.7032 0-1.2305-.1758-1.5821-.5273-.3515-.3516-.5273-.8789-.5273-1.5821v-7.0312c0-.5274.1758-1.0547.5273-1.4063.3516-.3515.8789-.7031 1.5821-.7031h7.0312c.5274 0 1.0547.3516 1.4063.7031.3515.3516.7031.8789.7031 1.4063v7.0312zm-16.875 0c0 .7032-.3516 1.2305-.7031 1.5821-.3516.3515-.8789.5273-1.4063.5273h-7.0312c-.7032 0-1.2305-.1758-1.5821-.5273-.3515-.3516-.5273-.8789-.5273-1.5821v-7.0312c0-.5274.1758-1.0547.5273-1.4063.3516-.3515.8789-.7031 1.5821-.7031h7.0312c.5274 0 1.0547.3516 1.4063.7031.3515.3516.7031.8789.7031 1.4063v7.0312zm33.75 0c0 .7032-.3516 1.2305-.7031 1.5821-.3516.3515-.8789.5273-1.4063.5273h-7.0312c-.7032 0-1.2305-.1758-1.5821-.5273-.3515-.3516-.5273-.8789-.5273-1.5821v-7.0312c0-.5274.1758-1.0547.5273-1.4063.3516-.3515.8789-.7031 1.5821-.7031h7.0312c.5274 0 1.0547.3516 1.4063.7031.3515.3516.7031.8789.7031 1.4063v7.0312zM78.75 19.6875c0-2.2852-.8789-4.2187-2.4609-5.9766-1.7579-1.582-3.6914-2.4609-5.9766-2.4609H61.875V2.10938c0-.52735-.3516-1.05469-.7031-1.40625C60.8203.35156 60.293 0 59.7656 0h-7.0312c-.7032 0-1.2305.35156-1.5821.70313-.3515.35156-.5273.8789-.5273 1.40625V11.25h-22.5V2.10938c0-.52735-.3516-1.05469-.7031-1.40625C27.0703.35156 26.543 0 26.0156 0h-7.0312c-.7032 0-1.2305.35156-1.5821.70313-.3515.35156-.5273.8789-.5273 1.40625V11.25H8.4375c-2.46094 0-4.39453.8789-5.97656 2.4609C.70313 15.4688 0 17.4023 0 19.6875v61.875c0 2.4609.70313 4.3945 2.46094 5.9766C4.04297 89.2969 5.97656 90 8.4375 90h61.875c2.2852 0 4.2187-.7031 5.9766-2.4609 1.582-1.5821 2.4609-3.5157 2.4609-5.9766v-61.875zm-8.4375 60.8203c0 .3516-.1758.5274-.3516.7031-.3515.3516-.5273.3516-.7031.3516H9.49219c-.35157 0-.52735 0-.70313-.3516-.35156-.1757-.35156-.3515-.35156-.7031V28.125h61.875v52.3828z"/></svg>