<svg viewBox="0 0 310 68" xmlns="http://www.w3.org/2000/svg" xmlns:xlink="http://www.w3.org/1999/xlink"><use xlink:href="#path0_fill" transform="translate(1 1)" fill="#5C5C5C"/><use xlink:href="#path1_fill" transform="translate(1 42)" fill="#5C5C5C"/><defs><path id="logo-svg-path0_fill" d="M1.92 28V-.48h12.16v3.84H6v8.36h7.04v3.84H6v8.36h8.08V28H1.92zm14.9647 0V-.48h4.08V9.56h.08c.4533-.66667.9867-1.17333 1.6-1.52.64-.37333 1.36-.56 2.16-.56.9867 0 1.7467.17333 2.28.52.56.34667 1.0133.78667 1.36 1.32.2667.42667.44.9867.52 1.68.08.6933.12 1.7733.12 3.24v7.72c0 1.12-.0533 2.0133-.16 2.68-.1067.6667-.28 1.2267-.52 1.68-.6933 1.28-1.88 1.92-3.56 1.92-1.0133 0-1.7867-.2-2.32-.6-.5333-.4-1.0533-.8933-1.56-1.48V28h-4.08zm8.12-14.04c0-.64-.1467-1.2-.44-1.68-.2667-.48-.7867-.72-1.56-.72-.5867 0-1.08.2133-1.48.64-.3733.4-.56.92-.56 1.56v7.88c0 .7467.1867 1.36.56 1.84.3733.4533.8667.68 1.48.68.6933 0 1.2-.2533 1.52-.76.32-.5067.48-1.1733.48-2v-7.44zm19.6269 5.44h-8.08v2.76c0 .64.1733 1.1333.52 1.48.3733.3467.8666.52 1.48.52.7733 0 1.28-.2267 1.52-.68.2666-.4533.4266-.9067.48-1.36h4.08c0 1.7867-.5467 3.2267-1.64 4.32-.5334.56-1.1734 1-1.92 1.32-.7467.32-1.5867.48-2.52.48-1.28 0-2.3734-.2667-3.28-.8-.88-.5333-1.56-1.24-2.04-2.12-.2934-.5333-.4934-1.1467-.6-1.84-.1067-.6933-.16-1.4533-.16-2.28v-6.68c0-.8267.0533-1.5867.16-2.28.1066-.6933.3066-1.3067.6-1.84.48-.88 1.16-1.58667 2.04-2.12.9066-.53333 2-.8 3.28-.8.9333 0 1.7733.16 2.52.48.7733.32 1.4266.76 1.96 1.32 1.0666 1.2 1.6 2.7067 1.6 4.52v5.6zm-8.08-3.2h4v-2.32c0-.7733-.1867-1.3467-.56-1.72-.3467-.4-.8267-.6-1.44-.6-.6134 0-1.1067.2-1.48.6-.3467.3733-.52.9467-.52 1.72v2.32zM48.0362 28V7.72h4.08v1.96h.08c.4267-.64.9334-1.16 1.52-1.56.6134-.42667 1.3867-.64 2.32-.64.5067 0 1.0134.09333 1.52.28.5067.16.96.44 1.36.84.4.4.72.92.96 1.56.24.6133.36 1.3733.36 2.28V28h-4.08V13.96c0-.7467-.1733-1.3333-.52-1.76-.3466-.4267-.84-.64-1.48-.64-.7733 0-1.3066.24-1.6.72-.2933.48-.44 1.1733-.44 2.08V28h-4.08zm27.7469-8.6h-8.08v2.76c0 .64.1734 1.1333.52 1.48.3734.3467.8667.52 1.48.52.7734 0 1.28-.2267 1.52-.68.2667-.4533.4267-.9067.48-1.36h4.08c0 1.7867-.5466 3.2267-1.64 4.32-.5333.56-1.1733 1-1.92 1.32-.7466.32-1.5866.48-2.52.48-1.28 0-2.3733-.2667-3.28-.8-.88-.5333-1.56-1.24-2.04-2.12-.2933-.5333-.4933-1.1467-.6-1.84-.1066-.6933-.16-1.4533-.16-2.28v-6.68c0-.8267.0534-1.5867.16-2.28.1067-.6933.3067-1.3067.6-1.84.48-.88 1.16-1.58667 2.04-2.12.9067-.53333 2-.8 3.28-.8.9334 0 1.7734.16 2.52.48.7734.32 1.4267.76 1.96 1.32 1.0667 1.2 1.6 2.7067 1.6 4.52v5.6zm-8.08-3.2h4v-2.32c0-.7733-.1866-1.3467-.56-1.72-.3466-.4-.8266-.6-1.44-.6-.6133 0-1.1066.2-1.48.6-.3466.3733-.52.9467-.52 1.72v2.32zM78.1878 28v-3.24l6.6-13.44h-6.08v-3.6h10.72v3.24l-6.6 13.2h6.6V28h-11.24zm25.5832-8.6h-8.0804v2.76c0 .64.1734 1.1333.52 1.48.3734.3467.8667.52 1.48.52.7734 0 1.28-.2267 1.52-.68.2667-.4533.4267-.9067.48-1.36h4.0804c0 1.7867-.547 3.2267-1.64 4.32-.534.56-1.174 1-1.92 1.32-.747.32-1.587.48-2.5204.48-1.28 0-2.3733-.2667-3.28-.8-.88-.5333-1.56-1.24-2.04-2.12-.2933-.5333-.4933-1.1467-.6-1.84-.1066-.6933-.16-1.4533-.16-2.28v-6.68c0-.8267.0534-1.5867.16-2.28.1067-.6933.3067-1.3067.6-1.84.48-.88 1.16-1.58667 2.04-2.12.9067-.53333 2-.8 3.28-.8.9334 0 1.7734.16 2.5204.48.773.32 1.426.76 1.96 1.32 1.066 1.2 1.6 2.7067 1.6 4.52v5.6zm-8.0804-3.2h4v-2.32c0-.7733-.1866-1.3467-.56-1.72-.3466-.4-.8266-.6-1.44-.6-.6133 0-1.1066.2-1.48.6-.3466.3733-.52.9467-.52 1.72v2.32zM107.175 28V7.72h4.08v2.16c.827-.74667 1.64-1.33333 2.44-1.76.8-.42667 1.787-.64 2.96-.64v4.32c-.4-.16-.813-.24-1.24-.24-.426 0-.893.08-1.4.24-.48.1333-.92.3733-1.32.72-.426.3467-.773.8-1.04 1.36-.266.56-.4 1.2533-.4 2.08V28h-4.08zm19.595 0V-.48h5.96c1.307 0 2.413.2 3.32.6.933.4 1.693.93333 2.28 1.6.587.66667 1 1.44 1.24 2.32.267.85333.4 1.74667.4 2.68v1.04c0 .77333-.067 1.42667-.2 1.96-.107.5333-.28 1-.52 1.4-.453.7467-1.147 1.3867-2.08 1.92.96.4533 1.667 1.12 2.12 2 .453.88.68 2.08.68 3.6v1.6c0 2.5067-.613 4.4267-1.84 5.76-1.2 1.3333-3.133 2-5.8 2h-5.56zm4.08-13.2v9.12h1.76c.827 0 1.467-.12 1.92-.36.48-.24.84-.5733 1.08-1 .24-.4267.387-.9333.44-1.52.053-.5867.08-1.2267.08-1.92 0-.72-.04-1.3467-.12-1.88-.08-.5333-.24-.9867-.48-1.36-.267-.3733-.627-.64-1.08-.8-.453-.1867-1.053-.28-1.8-.28h-1.8zm0-11.44v7.84h1.84c1.36 0 2.267-.3333 2.72-1 .48-.69333.72-1.69333.72-3 0-1.28-.267-2.24-.8-2.88-.507-.64-1.44-.96-2.8-.96h-1.68zM151.681 28v-2.08h-.08c-.533.7467-1.08 1.32-1.64 1.72-.533.4-1.293.6-2.28.6-.48 0-.973-.08-1.48-.24-.48-.1333-.946-.4-1.4-.8-.453-.3733-.826-.9067-1.12-1.6-.266-.72-.4-1.64-.4-2.76 0-1.1467.094-2.1467.28-3 .187-.88.534-1.6133 1.04-2.2.48-.56 1.134-.9733 1.96-1.24.827-.2933 1.88-.44 3.16-.44h.44c.16 0 .307.0133.44.04.134.0267.294.04.48.04.187 0 .387.0133.6.04v-2.12c0-.6933-.146-1.2667-.44-1.72-.293-.4533-.826-.68-1.6-.68-.533 0-1.026.1733-1.48.52-.426.3467-.706.8533-.84 1.52h-3.96c.107-1.8133.72-3.28 1.84-4.4.534-.53333 1.174-.94667 1.92-1.24.747-.32 1.587-.48 2.52-.48.854 0 1.654.13333 2.4.4.747.26667 1.4.66667 1.96 1.2.534.53333.96 1.2 1.28 2 .32.8.48 1.7333.48 2.8V28h-4.08zm0-8.72c-.453-.08-.826-.12-1.12-.12-.88 0-1.64.2133-2.28.64-.613.4-.92 1.1467-.92 2.24 0 .7733.187 1.4.56 1.88.374.48.894.72 1.56.72.694 0 1.227-.2267 1.6-.68.4-.4533.6-1.0933.6-1.92v-2.76zm7.485 16.92V7.72h4.08v1.84c.507-.58667 1.027-1.08 1.56-1.48.533-.4 1.307-.6 2.32-.6 1.68 0 2.867.64 3.56 1.92.24.45333.413 1.0133.52 1.68.107.6667.16 1.56.16 2.68v7.72c0 1.4933-.04 2.5733-.12 3.24-.16 1.3333-.773 2.3333-1.84 3-.533.3467-1.307.52-2.32.52-.8 0-1.52-.1733-2.16-.52-.613-.3733-1.147-.8933-1.6-1.56h-.08V36.2h-4.08zm8.12-21.88c0-.8267-.16-1.4933-.48-2-.32-.5067-.827-.76-1.52-.76-.613 0-1.107.24-1.48.72-.373.4533-.56 1.0533-.56 1.8v7.88c0 .64.187 1.1733.56 1.6.4.4.893.6 1.48.6.773 0 1.293-.24 1.56-.72.293-.48.44-1.04.44-1.68v-7.44zm7.827-6.6V1.56h4.08v6.16h2.52v3.2h-2.52v11.24c0 .48.04.8533.12 1.12.106.2667.266.4667.48.6.213.1333.466.2133.76.24.32.0267.706.04 1.16.04V28h-1.68c-.934 0-1.72-.1467-2.36-.44-.614-.2933-1.107-.6667-1.48-1.12-.374-.4533-.654-.96-.84-1.52-.16-.5867-.24-1.1467-.24-1.68V10.92h-2.04v-3.2h2.04zM183.677 28V7.72h4.08V28h-4.08zm0-24.4V-.48h4.08V3.6h-4.08zm15.222 9.8c-.027-.6933-.254-1.2133-.68-1.56-.4-.3467-.867-.52-1.4-.52-.64 0-1.134.2133-1.48.64-.347.4-.52.8667-.52 1.4 0 .3733.093.7467.28 1.12.186.3467.666.6667 1.44.96l2.4.96c1.52.5867 2.56 1.3867 3.12 2.4.586 1.0133.88 2.12.88 3.32 0 .8533-.16 1.6533-.48 2.4-.294.72-.707 1.36-1.24 1.92-.534.56-1.174 1-1.92 1.32-.747.32-1.56.48-2.44.48-1.654 0-3.04-.52-4.16-1.56-.56-.5067-1.014-1.1333-1.36-1.88-.347-.7733-.534-1.6667-.56-2.68h3.84c.08.56.266 1.08.56 1.56.32.48.866.72 1.64.72.586 0 1.106-.1867 1.56-.56.48-.4.72-.9467.72-1.64 0-.56-.147-1.04-.44-1.44-.294-.4-.827-.7467-1.6-1.04l-1.96-.72c-1.28-.48-2.294-1.1867-3.04-2.12-.72-.96-1.08-2.12-1.08-3.48 0-.8533.16-1.64.48-2.36.32-.7467.76-1.38667 1.32-1.92.533-.53333 1.16-.93333 1.88-1.2.72-.29333 1.493-.44 2.32-.44.826 0 1.586.14667 2.28.44.72.29333 1.333.70667 1.84 1.24.506.53333.906 1.1733 1.2 1.92.293.72.44 1.4933.44 2.32h-3.84zm7.062-5.68V1.56h4.08v6.16h2.52v3.2h-2.52v11.24c0 .48.04.8533.12 1.12.107.2667.267.4667.48.6.214.1333.467.2133.76.24.32.0267.707.04 1.16.04V28h-1.68c-.933 0-1.72-.1467-2.36-.44-.613-.2933-1.106-.6667-1.48-1.12-.373-.4533-.653-.96-.84-1.52-.16-.5867-.24-1.1467-.24-1.68V10.92h-2.04v-3.2h2.04zm29.586 12.16v1.76c0 .88-.173 1.72-.52 2.52-.32.7733-.773 1.4667-1.36 2.08-.586.6133-1.28 1.1067-2.08 1.48-.773.3467-1.613.52-2.52.52-.773 0-1.56-.1067-2.36-.32-.8-.2133-1.52-.5867-2.16-1.12-.64-.5333-1.173-1.2133-1.6-2.04-.4-.8533-.6-1.9333-.6-3.24V5.84c0-.93333.16-1.8.48-2.6.32-.8.774-1.49333 1.36-2.08.587-.58667 1.28-1.04 2.08-1.36.827-.34667 1.734-.52 2.72-.52 1.92 0 3.48.62667 4.68 1.88.587.61333 1.04 1.34667 1.36 2.2.347.82667.52 1.73333.52 2.72v1.6h-4.08V6.32c0-.8-.226-1.49333-.68-2.08-.453-.58667-1.066-.88-1.84-.88-1.013 0-1.693.32-2.04.96-.32.61333-.48 1.4-.48 2.36v14.56c0 .8267.174 1.52.52 2.08.374.56 1.027.84 1.96.84.267 0 .547-.04.84-.12.32-.1067.614-.2667.88-.48.24-.2133.44-.5067.6-.88.16-.3733.24-.84.24-1.4v-1.4h4.08zm3.489 8.12V-.48h4.08V9.68h.08c.427-.64.934-1.16 1.52-1.56.614-.42667 1.387-.64 2.32-.64.507 0 1.014.09333 1.52.28.507.16.96.44 1.36.84.4.4.72.92.96 1.56.24.6133.36 1.3733.36 2.28V28h-4.08V13.96c0-.7467-.173-1.3333-.52-1.76-.346-.4267-.84-.64-1.48-.64-.773 0-1.306.24-1.6.72-.293.48-.44 1.1733-.44 2.08V28h-4.08zm28.147-20.28V28h-4.08v-1.96h-.08c-.427.64-.947 1.1733-1.56 1.6-.587.4-1.347.6-2.28.6-.507 0-1.013-.08-1.52-.24-.507-.1867-.96-.48-1.36-.88-.4-.4-.72-.9067-.96-1.52-.24-.64-.36-1.4133-.36-2.32V7.72h4.08v14.04c0 .7467.173 1.3333.52 1.76.347.4267.84.64 1.48.64.773 0 1.307-.24 1.6-.72.293-.48.44-1.1733.44-2.08V7.72h4.08zM270.93 28V7.72h4.08v2.16c.827-.74667 1.64-1.33333 2.44-1.76.8-.42667 1.787-.64 2.96-.64v4.32c-.4-.16-.813-.24-1.24-.24-.427 0-.893.08-1.4.24-.48.1333-.92.3733-1.32.72-.427.3467-.773.8-1.04 1.36s-.4 1.2533-.4 2.08V28h-4.08zm15.384-5.84c0 .64.173 1.1333.52 1.48.373.3467.867.52 1.48.52.773 0 1.28-.2267 1.52-.68.267-.4533.427-.9067.48-1.36h4.08c0 1.7867-.547 3.2267-1.64 4.32-.533.56-1.173 1-1.92 1.32-.747.32-1.587.48-2.52.48-1.28 0-2.373-.2667-3.28-.8-.88-.5333-1.56-1.24-2.04-2.12-.293-.5333-.493-1.1467-.6-1.84-.107-.6933-.16-1.4533-.16-2.28v-6.68c0-.8267.053-1.5867.16-2.28.107-.6933.307-1.3067.6-1.84.48-.88 1.16-1.58667 2.04-2.12.907-.53333 2-.8 3.28-.8.933 0 1.773.16 2.52.48.773.32 1.427.76 1.96 1.32 1.067 1.2 1.6 2.76 1.6 4.68h-4.08c0-.8267-.187-1.4267-.56-1.8-.347-.4-.827-.6-1.44-.6s-1.107.2-1.48.6c-.347.3733-.52.9467-.52 1.72v8.28zM296.73 28V-.48h4.08V9.68h.08c.427-.64.933-1.16 1.52-1.56.613-.42667 1.387-.64 2.32-.64.507 0 1.013.09333 1.52.28.507.16.96.44 1.36.84.4.4.72.92.96 1.56.24.6133.36 1.3733.36 2.28V28h-4.08V13.96c0-.7467-.173-1.3333-.52-1.76-.347-.4267-.84-.64-1.48-.64-.773 0-1.307.24-1.6.72-.293.48-.44 1.1733-.44 2.08V28h-4.08z"/><path id="logo-svg-path1_fill" d="M7.98.064v15.232c0 1.3627-.42933 2.5013-1.288 3.416-.42933.448-.94267.8027-1.54 1.064-.57867.2613-1.26.392-2.044.392-.91467 0-1.68-.196-2.296-.588-.59733-.4107-1.07333-.812-1.428-1.204l2.24-1.792c.20533.2053.43867.3827.7.532.28.1307.56933.196.868.196.168 0 .364-.028.588-.084.224-.0747.43867-.2053.644-.392.20533-.168.37333-.4013.504-.7.13067-.3173.196-.728.196-1.232V.064H7.98zM20.9202 13.98h-5.656v1.932c0 .448.1213.7933.364 1.036.2613.2427.6066.364 1.036.364.5413 0 .896-.1587 1.064-.476.1866-.3173.2986-.6347.336-.952h2.856c0 1.2507-.3827 2.2587-1.148 3.024-.3734.392-.8214.7-1.344.924-.5227.224-1.1107.336-1.764.336-.896 0-1.6614-.1867-2.296-.56-.616-.3733-1.092-.868-1.428-1.484-.2054-.3733-.3454-.8027-.42-1.288-.0747-.4853-.112-1.0173-.112-1.596v-4.676c0-.57867.0373-1.11067.112-1.596.0746-.48533.2146-.91467.42-1.288.336-.616.812-1.11067 1.428-1.484.6346-.37333 1.4-.56 2.296-.56.6533 0 1.2413.112 1.764.336.5413.224.9986.532 1.372.924.7466.84 1.12 1.89467 1.12 3.164v3.92zm-5.656-2.24h2.8v-1.624c0-.54133-.1307-.94267-.392-1.204-.2427-.28-.5787-.42-1.008-.42-.4294 0-.7747.14-1.036.42-.2427.26133-.364.66267-.364 1.204v1.624zM25.7114 20V8.044h-1.4v-2.24h1.4V3.872c0-.69067.1027-1.26933.308-1.736.2054-.48533.4854-.88667.84-1.204.336-.31733.7187-.54133 1.148-.672.448-.13067.9054-.196 1.372-.196h1.316v2.688h-1.288c-.56 0-.84.32667-.84.98v2.072h2.128v2.24h-2.128V20h-2.856zm8.5311 0V8.044h-1.4v-2.24h1.4V3.872c0-.69067.1026-1.26933.308-1.736.2053-.48533.4853-.88667.84-1.204.336-.31733.7186-.54133 1.148-.672.448-.13067.9053-.196 1.372-.196h1.316v2.688h-1.288c-.56 0-.84.32667-.84.98v2.072h2.128v2.24h-2.128V20h-2.856zm16.427-6.02h-5.656v1.932c0 .448.1213.7933.364 1.036.2613.2427.6067.364 1.036.364.5413 0 .896-.1587 1.064-.476.1867-.3173.2987-.6347.336-.952h2.856c0 1.2507-.3827 2.2587-1.148 3.024-.3733.392-.8213.7-1.344.924-.5227.224-1.1107.336-1.764.336-.896 0-1.6613-.1867-2.296-.56-.616-.3733-1.092-.868-1.428-1.484-.2053-.3733-.3453-.8027-.42-1.288-.0747-.4853-.112-1.0173-.112-1.596v-4.676c0-.57867.0373-1.11067.112-1.596.0747-.48533.2147-.91467.42-1.288.336-.616.812-1.11067 1.428-1.484.6347-.37333 1.4-.56 2.296-.56.6533 0 1.2413.112 1.764.336.5413.224.9987.532 1.372.924.7467.84 1.12 1.89467 1.12 3.164v3.92zm-5.656-2.24h2.8v-1.624c0-.54133-.1307-.94267-.392-1.204-.2427-.28-.5787-.42-1.008-.42s-.7747.14-1.036.42c-.2427.26133-.364.66267-.364 1.204v1.624zM55.0968 20V5.804h2.856v1.512c.5787-.52267 1.148-.93333 1.708-1.232s1.2507-.448 2.072-.448V8.66c-.28-.112-.5693-.168-.868-.168-.2987 0-.6253.056-.98.168-.336.09333-.644.26133-.924.504-.2987.24267-.5413.56-.728.952-.1867.392-.28.8773-.28 1.456V20h-2.856zm15.297-10.22c-.0187-.48533-.1774-.84933-.476-1.092-.28-.24267-.6067-.364-.98-.364-.448 0-.7934.14933-1.036.448-.2427.28-.364.60667-.364.98 0 .2613.0653.5227.196.784.1306.2427.4666.4667 1.008.672l1.68.672c1.064.4107 1.792.9707 2.184 1.68.4106.7093.616 1.484.616 2.324 0 .5973-.112 1.1573-.336 1.68-.2054.504-.4947.952-.868 1.344-.3734.392-.8214.7-1.344.924-.5227.224-1.092.336-1.708.336-1.1574 0-2.128-.364-2.912-1.092-.392-.3547-.7094-.7933-.952-1.316-.2427-.5413-.3734-1.1667-.392-1.876h2.688c.056.392.1866.756.392 1.092.224.336.6066.504 1.148.504.4106 0 .7746-.1307 1.092-.392.336-.28.504-.6627.504-1.148 0-.392-.1027-.728-.308-1.008-.2054-.28-.5787-.5227-1.12-.728l-1.372-.504c-.896-.336-1.6054-.8307-2.128-1.484-.504-.672-.756-1.484-.756-2.436 0-.59733.112-1.148.336-1.652.224-.52267.532-.97067.924-1.344.3733-.37333.812-.65333 1.316-.84.504-.20533 1.0453-.308 1.624-.308.5786 0 1.1106.10267 1.596.308.504.20533.9333.49467 1.288.868.3546.37333.6346.82133.84 1.344.2053.504.308 1.04533.308 1.624h-2.688zm6.7357.784c0-.57867.0373-1.11067.112-1.596.0747-.48533.2147-.91467.42-1.288.336-.616.812-1.11067 1.428-1.484.6347-.37333 1.4-.56 2.296-.56.896 0 1.652.18667 2.268.56.6347.37333 1.12.868 1.456 1.484.2053.37333.3453.80267.42 1.288.0747.48533.112 1.01733.112 1.596v4.676c0 .5787-.0373 1.1107-.112 1.596-.0747.4853-.2147.9147-.42 1.288-.336.616-.8213 1.1107-1.456 1.484-.616.3733-1.372.56-2.268.56-.896 0-1.6613-.1867-2.296-.56-.616-.3733-1.092-.868-1.428-1.484-.2053-.3733-.3453-.8027-.42-1.288-.0747-.4853-.112-1.0173-.112-1.596v-4.676zm2.856 5.124c0 .5413.1213.952.364 1.232.2613.2613.6067.392 1.036.392s.7653-.1307 1.008-.392c.2613-.28.392-.6907.392-1.232v-5.572c0-.54133-.1307-.94267-.392-1.204-.2427-.28-.5787-.42-1.008-.42s-.7747.14-1.036.42c-.2427.26133-.364.66267-.364 1.204v5.572zM90.0688 20V5.804h2.856v1.372h.056c.2987-.448.6533-.812 1.064-1.092.4293-.29867.9707-.448 1.624-.448.3547 0 .7093.06533 1.064.196.3547.112.672.308.952.588.28.28.504.644.672 1.092.168.42933.252.96133.252 1.596V20h-2.856v-9.828c0-.52267-.1213-.93333-.364-1.232-.2427-.29867-.588-.448-1.036-.448-.5413 0-.9147.168-1.12.504-.2053.336-.308.82133-.308 1.456V20h-2.856zm29.9662-5.684v1.232c0 .616-.121 1.204-.364 1.764-.224.5413-.541 1.0267-.952 1.456-.411.4293-.896.7747-1.456 1.036-.541.2427-1.129.364-1.764.364-.541 0-1.092-.0747-1.652-.224-.56-.1493-1.064-.4107-1.512-.784-.448-.3733-.821-.8493-1.12-1.428-.28-.5973-.42-1.3533-.42-2.268V4.488c0-.65333.112-1.26.336-1.82.224-.56.541-1.04533.952-1.456.411-.41067.896-.728 1.456-.952.579-.24267 1.213-.364 1.904-.364 1.344 0 2.436.43867 3.276 1.316.411.42933.728.94267.952 1.54.243.57867.364 1.21333.364 1.904v1.12h-2.856v-.952c0-.56-.159-1.04533-.476-1.456-.317-.41067-.747-.616-1.288-.616-.709 0-1.185.224-1.428.672-.224.42933-.336.98-.336 1.652v10.192c0 .5787.121 1.064.364 1.456.261.392.719.588 1.372.588.187 0 .383-.028.588-.084.224-.0747.429-.1867.616-.336.168-.1493.308-.3547.42-.616.112-.2613.168-.588.168-.98v-.98h2.856zm4.234-3.752c0-.57867.038-1.11067.112-1.596.075-.48533.215-.91467.42-1.288.336-.616.812-1.11067 1.428-1.484.635-.37333 1.4-.56 2.296-.56.896 0 1.652.18667 2.268.56.635.37333 1.12.868 1.456 1.484.206.37333.346.80267.42 1.288.075.48533.112 1.01733.112 1.596v4.676c0 .5787-.037 1.1107-.112 1.596-.074.4853-.214.9147-.42 1.288-.336.616-.821 1.1107-1.456 1.484-.616.3733-1.372.56-2.268.56-.896 0-1.661-.1867-2.296-.56-.616-.3733-1.092-.868-1.428-1.484-.205-.3733-.345-.8027-.42-1.288-.074-.4853-.112-1.0173-.112-1.596v-4.676zm2.856 5.124c0 .5413.122.952.364 1.232.262.2613.607.392 1.036.392.43 0 .766-.1307 1.008-.392.262-.28.392-.6907.392-1.232v-5.572c0-.54133-.13-.94267-.392-1.204-.242-.28-.578-.42-1.008-.42-.429 0-.774.14-1.036.42-.242.26133-.364.66267-.364 1.204v5.572zm18.624-9.884V20h-2.856v-1.372h-.056c-.299.448-.663.8213-1.092 1.12-.411.28-.943.42-1.596.42-.355 0-.71-.056-1.064-.168-.355-.1307-.672-.336-.952-.616-.28-.28-.504-.6347-.672-1.064-.168-.448-.252-.9893-.252-1.624V5.804h2.856v9.828c0 .5227.121.9333.364 1.232.242.2987.588.448 1.036.448.541 0 .914-.168 1.12-.504.205-.336.308-.8213.308-1.456V5.804h2.856zM150.415 20V5.804h2.856v1.372h.056c.299-.448.654-.812 1.064-1.092.43-.29867.971-.448 1.624-.448.355 0 .71.06533 1.064.196.355.112.672.308.952.588.28.28.504.644.672 1.092.168.42933.252.96133.252 1.596V20h-2.856v-9.828c0-.52267-.121-.93333-.364-1.232-.242-.29867-.588-.448-1.036-.448-.541 0-.914.168-1.12.504-.205.336-.308.82133-.308 1.456V20h-2.856zm13.207-14.196V1.492h2.856v4.312h1.764v2.24h-1.764v7.868c0 .336.028.5973.084.784.075.1867.187.3267.336.42.15.0933.327.1493.532.168.224.0187.495.028.812.028V20h-1.176c-.653 0-1.204-.1027-1.652-.308-.429-.2053-.774-.4667-1.036-.784-.261-.3173-.457-.672-.588-1.064-.112-.4107-.168-.8027-.168-1.176V8.044h-1.428v-2.24h1.428zm6.835 0h3.024l1.96 8.848h.056l1.932-8.848h2.94l-4.088 16.66c-.149.6347-.364 1.1573-.644 1.568-.261.4107-.569.7467-.924 1.008-.355.2613-.737.4387-1.148.532-.392.112-.803.168-1.232.168h-.784v-2.688h.644c.28 0 .523-.0373.728-.112.205-.0747.392-.2427.56-.504.149-.2613.289-.6347.42-1.12.131-.4667.28-1.12.448-1.96l-3.892-13.552zm11.841 16.268v-4.928h2.856V20l-2.856 2.072zM197.504 20V.064h8.512v2.688h-5.656V8.8h4.928v2.688h-4.928V20h-2.856zM209.855.064h2.856v15.932c0 .5413.094.9147.28 1.12.206.1867.579.308 1.12.364v2.688c-.653 0-1.241-.056-1.764-.168-.522-.0933-.97-.2893-1.344-.588-.373-.28-.662-.672-.868-1.176-.186-.5227-.28-1.204-.28-2.044V.064zm7.436 10.5c0-.57867.037-1.11067.112-1.596.074-.48533.214-.91467.42-1.288.336-.616.812-1.11067 1.428-1.484.634-.37333 1.4-.56 2.296-.56.896 0 1.652.18667 2.268.56.634.37333 1.12.868 1.456 1.484.205.37333.345.80267.42 1.288.074.48533.112 1.01733.112 1.596v4.676c0 .5787-.038 1.1107-.112 1.596-.075.4853-.215.9147-.42 1.288-.336.616-.822 1.1107-1.456 1.484-.616.3733-1.372.56-2.268.56-.896 0-1.662-.1867-2.296-.56-.616-.3733-1.092-.868-1.428-1.484-.206-.3733-.346-.8027-.42-1.288-.075-.4853-.112-1.0173-.112-1.596v-4.676zm2.856 5.124c0 .5413.121.952.364 1.232.261.2613.606.392 1.036.392.429 0 .765-.1307 1.008-.392.261-.28.392-.6907.392-1.232v-5.572c0-.54133-.131-.94267-.392-1.204-.243-.28-.579-.42-1.008-.42-.43 0-.775.14-1.036.42-.243.26133-.364.66267-.364 1.204v5.572zM230.23 20V5.804h2.856v1.512c.579-.52267 1.148-.93333 1.708-1.232s1.251-.448 2.072-.448V8.66c-.28-.112-.569-.168-.868-.168-.299 0-.625.056-.98.168-.336.09333-.644.26133-.924.504-.299.24267-.541.56-.728.952-.187.392-.28.8773-.28 1.456V20h-2.856zm10.117 0V5.804h2.856V20h-2.856zm0-17.08V.064h2.856V2.92h-2.856zm10.375 12.46c0 .5787.112 1.0453.336 1.4.224.3547.579.532 1.064.532.43 0 .775-.1587 1.036-.476.262-.336.392-.7653.392-1.288v-5.516c0-.448-.14-.812-.42-1.092-.261-.29867-.597-.448-1.008-.448-.541 0-.914.168-1.12.504-.186.336-.28.728-.28 1.176v5.208zM253.55 20v-1.288c-.186.2053-.364.4013-.532.588-.168.168-.354.3173-.56.448-.205.1307-.438.2333-.7.308-.261.0747-.569.112-.924.112-1.194 0-2.025-.448-2.492-1.344-.168-.3173-.289-.7093-.364-1.176-.074-.4667-.112-1.092-.112-1.876v-5.404c0-1.02667.028-1.78267.084-2.268.112-.93333.551-1.63333 1.316-2.1.355-.24267.887-.364 1.596-.364.56 0 1.055.13067 1.484.392.448.24267.831.59733 1.148 1.064h.056V.064h2.856V20h-2.856zm12.927 0v-1.456h-.056c-.373.5227-.756.924-1.148 1.204-.373.28-.905.42-1.596.42-.336 0-.681-.056-1.036-.168-.336-.0933-.663-.28-.98-.56-.317-.2613-.579-.6347-.784-1.12-.187-.504-.28-1.148-.28-1.932 0-.8027.065-1.5027.196-2.1.131-.616.373-1.1293.728-1.54.336-.392.793-.6813 1.372-.868.579-.2053 1.316-.308 2.212-.308h.308c.112 0 .215.0093.308.028s.205.028.336.028c.131 0 .271.0093.42.028v-1.484c0-.48533-.103-.88667-.308-1.204-.205-.31733-.579-.476-1.12-.476-.373 0-.719.12133-1.036.364-.299.24267-.495.59733-.588 1.064h-2.772c.075-1.26933.504-2.296 1.288-3.08.373-.37333.821-.66267 1.344-.868.523-.224 1.111-.336 1.764-.336.597 0 1.157.09333 1.68.28.523.18667.98.46667 1.372.84.373.37333.672.84.896 1.4.224.56.336 1.21333.336 1.96V20h-2.856zm0-6.104c-.317-.056-.579-.084-.784-.084-.616 0-1.148.1493-1.596.448-.429.28-.644.8027-.644 1.568 0 .5413.131.98.392 1.316.261.336.625.504 1.092.504.485 0 .859-.1587 1.12-.476.28-.3173.42-.7653.42-1.344v-1.932z"/></defs></svg>