<svg viewBox="0 0 79 91" xmlns="http://www.w3.org/2000/svg" xmlns:xlink="http://www.w3.org/1999/xlink"><use xlink:href="#path0_fill" transform="translate(0 .25)" fill="#B5B5B5"/><defs><path id="our-story-svg" d="M78.75 63.2812c0 1.4063-.5273 2.6368-1.582 3.3399-.3516 1.4062-.5274 3.5156-.5274 6.5039 0 3.1641.1758 5.2734.5274 6.5039 1.0547 1.0547 1.582 2.1094 1.582 3.3399v2.8124c0 1.2305-.5273 2.2852-1.2305 2.9883C76.6406 89.6484 75.5859 90 74.5312 90H16.875c-4.7461 0-8.78906-1.582-11.95312-4.9219C1.58203 81.9141 0 77.8711 0 73.125v-56.25c0-4.5703 1.58203-8.61328 4.92188-11.95312C8.08594 1.75781 12.1289 0 16.875 0h57.6562c1.0547 0 2.1094.52734 2.9883 1.23047.7032.87891 1.2305 1.93359 1.2305 2.98828V63.2812zM22.5 23.5547v3.5156c0 .3516 0 .5274.3516.7031.1757.3516.3515.3516.7031.3516h37.2656c.1758 0 .3516 0 .7031-.3516.1758-.1757.3516-.3515.3516-.7031v-3.5156c0-.1758-.1758-.3516-.3516-.7031-.3515-.1758-.5273-.3516-.7031-.3516H23.5547c-.3516 0-.5274.1758-.7031.3516-.3516.3515-.3516.5273-.3516.7031zm0 11.25v3.5156c0 .3516 0 .5274.3516.7031.1757.3516.3515.3516.7031.3516h37.2656c.1758 0 .3516 0 .7031-.3516.1758-.1757.3516-.3515.3516-.7031v-3.5156c0-.1758-.1758-.3516-.3516-.7031-.3515-.1758-.5273-.3516-.7031-.3516H23.5547c-.3516 0-.5274.1758-.7031.3516-.3516.3515-.3516.5273-.3516.7031zM66.9727 78.75c-.1758-1.4062-.1758-3.3398-.1758-5.625 0-2.1094 0-4.043.1758-5.625H16.875c-1.582 0-2.9883.7031-4.043 1.7578s-1.582 2.461-1.582 3.8672c0 1.582.5273 2.9883 1.582 4.043s2.461 1.582 4.043 1.582h50.0977z"/></defs></svg>