<svg style="display: none;">  
  <!-- about -->
  <symbol id="aboutSVG" viewBox="0 0 79 91">
  <path fill="#000000" d="M78.75 63.2812c0 1.4063-.5273 2.6368-1.582 3.3399-.3516 1.4062-.5274 3.5156-.5274 6.5039 0 3.1641.1758 5.2734.5274 6.5039 1.0547 1.0547 1.582 2.1094 1.582 3.3399v2.8124c0 1.2305-.5273 2.2852-1.2305 2.9883C76.6406 89.6484 75.5859 90 74.5312 90H16.875c-4.7461 0-8.78906-1.582-11.95312-4.9219C1.58203 81.9141 0 77.8711 0 73.125v-56.25c0-4.5703 1.58203-8.61328 4.92188-11.95312C8.08594 1.75781 12.1289 0 16.875 0h57.6562c1.0547 0 2.1094.52734 2.9883 1.23047.7032.87891 1.2305 1.93359 1.2305 2.98828V63.2812zM22.5 23.5547v3.5156c0 .3516 0 .5274.3516.7031.1757.3516.3515.3516.7031.3516h37.2656c.1758 0 .3516 0 .7031-.3516.1758-.1757.3516-.3515.3516-.7031v-3.5156c0-.1758-.1758-.3516-.3516-.7031-.3515-.1758-.5273-.3516-.7031-.3516H23.5547c-.3516 0-.5274.1758-.7031.3516-.3516.3515-.3516.5273-.3516.7031zm0 11.25v3.5156c0 .3516 0 .5274.3516.7031.1757.3516.3515.3516.7031.3516h37.2656c.1758 0 .3516 0 .7031-.3516.1758-.1757.3516-.3515.3516-.7031v-3.5156c0-.1758-.1758-.3516-.3516-.7031-.3515-.1758-.5273-.3516-.7031-.3516H23.5547c-.3516 0-.5274.1758-.7031.3516-.3516.3515-.3516.5273-.3516.7031zM66.9727 78.75c-.1758-1.4062-.1758-3.3398-.1758-5.625 0-2.1094 0-4.043.1758-5.625H16.875c-1.582 0-2.9883.7031-4.043 1.7578s-1.582 2.461-1.582 3.8672c0 1.582.5273 2.9883 1.582 4.043s2.461 1.582 4.043 1.582h50.0977z"/>
  </symbol>
  
  <!-- events -->
  <symbol id="eventsSVG" viewBox="0 0 79 91">
  <path fill="#000000" d="M26.0156 50.625c.5274 0 1.0547-.1758 1.4063-.5273.3515-.3516.7031-.8789.7031-1.5821v-7.0312c0-.5274-.3516-1.0547-.7031-1.4063-.3516-.3515-.8789-.7031-1.4063-.7031h-7.0312c-.7032 0-1.2305.3516-1.5821.7031-.3515.3516-.5273.8789-.5273 1.4063v7.0312c0 .7032.1758 1.2305.5273 1.5821.3516.3515.8789.5273 1.5821.5273h7.0312zM45 48.5156c0 .7032-.3516 1.2305-.7031 1.5821-.3516.3515-.8789.5273-1.4063.5273h-7.0312c-.7032 0-1.2305-.1758-1.5821-.5273-.3515-.3516-.5273-.8789-.5273-1.5821v-7.0312c0-.5274.1758-1.0547.5273-1.4063.3516-.3515.8789-.7031 1.5821-.7031h7.0312c.5274 0 1.0547.3516 1.4063.7031.3515.3516.7031.8789.7031 1.4063v7.0312zm16.875 0c0 .7032-.3516 1.2305-.7031 1.5821-.3516.3515-.8789.5273-1.4063.5273h-7.0312c-.7032 0-1.2305-.1758-1.5821-.5273-.3515-.3516-.5273-.8789-.5273-1.5821v-7.0312c0-.5274.1758-1.0547.5273-1.4063.3516-.3515.8789-.7031 1.5821-.7031h7.0312c.5274 0 1.0547.3516 1.4063.7031.3515.3516.7031.8789.7031 1.4063v7.0312zM45 65.3906c0 .7032-.3516 1.2305-.7031 1.5821-.3516.3515-.8789.5273-1.4063.5273h-7.0312c-.7032 0-1.2305-.1758-1.5821-.5273-.3515-.3516-.5273-.8789-.5273-1.5821v-7.0312c0-.5274.1758-1.0547.5273-1.4063.3516-.3515.8789-.7031 1.5821-.7031h7.0312c.5274 0 1.0547.3516 1.4063.7031.3515.3516.7031.8789.7031 1.4063v7.0312zm-16.875 0c0 .7032-.3516 1.2305-.7031 1.5821-.3516.3515-.8789.5273-1.4063.5273h-7.0312c-.7032 0-1.2305-.1758-1.5821-.5273-.3515-.3516-.5273-.8789-.5273-1.5821v-7.0312c0-.5274.1758-1.0547.5273-1.4063.3516-.3515.8789-.7031 1.5821-.7031h7.0312c.5274 0 1.0547.3516 1.4063.7031.3515.3516.7031.8789.7031 1.4063v7.0312zm33.75 0c0 .7032-.3516 1.2305-.7031 1.5821-.3516.3515-.8789.5273-1.4063.5273h-7.0312c-.7032 0-1.2305-.1758-1.5821-.5273-.3515-.3516-.5273-.8789-.5273-1.5821v-7.0312c0-.5274.1758-1.0547.5273-1.4063.3516-.3515.8789-.7031 1.5821-.7031h7.0312c.5274 0 1.0547.3516 1.4063.7031.3515.3516.7031.8789.7031 1.4063v7.0312zM78.75 19.6875c0-2.2852-.8789-4.2187-2.4609-5.9766-1.7579-1.582-3.6914-2.4609-5.9766-2.4609H61.875V2.10938c0-.52735-.3516-1.05469-.7031-1.40625C60.8203.35156 60.293 0 59.7656 0h-7.0312c-.7032 0-1.2305.35156-1.5821.70313-.3515.35156-.5273.8789-.5273 1.40625V11.25h-22.5V2.10938c0-.52735-.3516-1.05469-.7031-1.40625C27.0703.35156 26.543 0 26.0156 0h-7.0312c-.7032 0-1.2305.35156-1.5821.70313-.3515.35156-.5273.8789-.5273 1.40625V11.25H8.4375c-2.46094 0-4.39453.8789-5.97656 2.4609C.70313 15.4688 0 17.4023 0 19.6875v61.875c0 2.4609.70313 4.3945 2.46094 5.9766C4.04297 89.2969 5.97656 90 8.4375 90h61.875c2.2852 0 4.2187-.7031 5.9766-2.4609 1.582-1.5821 2.4609-3.5157 2.4609-5.9766v-61.875zm-8.4375 60.8203c0 .3516-.1758.5274-.3516.7031-.3515.3516-.5273.3516-.7031.3516H9.49219c-.35157 0-.52735 0-.70313-.3516-.35156-.1757-.35156-.3515-.35156-.7031V28.125h61.875v52.3828z"/>
  </symbol>
  
  <!-- bulletin -->
  <symbol id="bulletinSVG" viewBox="0 0 102 68">
  <path fill="#000000" d="M97.0312 0c1.0547 0 2.1094.52734 2.9888 1.23047.703.87891 1.23 1.93359 1.23 2.98828V63.2812c0 1.2305-.527 2.2852-1.23 2.9883-.8794.8789-1.9341 1.2305-2.9888 1.2305H9.84375c-2.8125 0-5.09766-.8789-7.03125-2.8125C.8789 62.7539 0 60.4688 0 57.6562V9.84375c0-1.05469.35156-2.10937 1.23047-2.98828C1.93359 6.15234 2.98828 5.625 4.21875 5.625h7.55855c.5274-1.58203 1.5821-2.98828 2.9883-4.04297C16.1719.52734 17.9297 0 19.6875 0h77.3437zM8.4375 57.6562c0 .3516 0 .7032.35156 1.0547.35156.3516.70313.3516 1.05469.3516.35155 0 .52735 0 .87895-.3516.3515-.3515.5273-.7031.5273-1.0547V14.0625H8.4375v43.5937zm84.375 1.4063V8.4375h-73.125v49.2187l-.1758 1.4063h73.3008zM30.2344 37.9688c-.7032 0-1.2305-.1758-1.5821-.5274-.3515-.3516-.5273-.8789-.5273-1.582v-16.875c0-.5274.1758-1.0547.5273-1.4063.3516-.3515.8789-.7031 1.5821-.7031h23.9062c.5274 0 1.0547.3516 1.4063.7031.3515.3516.7031.8789.7031 1.4063v16.875c0 .7031-.3516 1.2304-.7031 1.582-.3516.3516-.8789.5274-1.4063.5274H30.2344zm4.9218-14.0626v7.0313h14.0626v-7.0313H35.1562zM28.125 48.5156c0 .7032.1758 1.2305.5273 1.5821.3516.3515.8789.5273 1.5821.5273h23.9062c.5274 0 1.0547-.1758 1.4063-.5273.3515-.3516.7031-.8789.7031-1.5821v-4.2187c0-.5274-.3516-1.0547-.7031-1.4063-.3516-.3515-.8789-.7031-1.4063-.7031H30.2344c-.7032 0-1.2305.3516-1.5821.7031-.3515.3516-.5273.8789-.5273 1.4063v4.2187zm33.75 0c0 .7032.1758 1.2305.5273 1.5821.3516.3515.8789.5273 1.5821.5273h18.2812c.5274 0 1.0547-.1758 1.4063-.5273.3515-.3516.7031-.8789.7031-1.5821v-4.2187c0-.5274-.3516-1.0547-.7031-1.4063-.3516-.3515-.8789-.7031-1.4063-.7031H63.9844c-.7032 0-1.2305.3516-1.5821.7031-.3515.3516-.5273.8789-.5273 1.4063v4.2187zm0-25.3125c0 .7031.1758 1.2305.5273 1.5821.3516.3515.8789.5273 1.5821.5273h18.2812c.5274 0 1.0547-.1758 1.4063-.5273.3515-.3516.7031-.879.7031-1.5821v-4.2187c0-.5274-.3516-1.0547-.7031-1.4063-.3516-.3515-.8789-.7031-1.4063-.7031H63.9844c-.7032 0-1.2305.3516-1.5821.7031-.3515.3516-.5273.8789-.5273 1.4063v4.2187zm0 12.6563c0 .7031.1758 1.2304.5273 1.582.3516.3516.8789.5274 1.5821.5274h18.2812c.5274 0 1.0547-.1758 1.4063-.5274.3515-.3516.7031-.8789.7031-1.582v-4.2188c0-.5273-.3516-1.0547-.7031-1.4062-.3516-.3516-.8789-.7032-1.4063-.7032H63.9844c-.7032 0-1.2305.3516-1.5821.7032-.3515.3515-.5273.8789-.5273 1.4062v4.2188z"/>
  </symbol>
  
  <!-- contact -->
  <symbol id="contactSVG" viewBox="0 0 90 68">
  <path fill="#000000" d="M81.5625 0c2.2852 0 4.2187.8789 5.9766 2.46094C89.1211 4.21875 90 6.15234 90 8.4375v50.625c0 2.4609-.8789 4.3945-2.4609 5.9766-1.7579 1.7578-3.6914 2.4609-5.9766 2.4609H8.4375c-2.46094 0-4.39453-.7031-5.97656-2.4609C.70313 63.457 0 61.5234 0 59.0625V8.4375c0-2.28516.70313-4.21875 2.46094-5.97656C4.04297.87891 5.97656 0 8.4375 0h73.125zm0 8.4375H8.4375v7.207c4.043 3.3399 11.9531 9.4922 23.7305 18.6328l1.582 1.4063c2.2852 2.1094 4.2188 3.5156 5.625 4.2187 2.1094 1.5821 4.043 2.2852 5.625 2.2852 1.4062 0 3.3398-.7031 5.625-2.2852 1.4062-.7031 3.1641-2.1093 5.625-4.2187l1.582-1.4063c11.6016-8.9648 19.5118-15.1171 23.7305-18.6328v-7.207zm-73.125 50.625h73.125V26.3672L61.1719 42.5391c-2.9883 2.4609-5.4492 4.2187-7.2071 5.2734-3.164 1.9336-6.1523 2.8125-8.9648 2.8125s-5.9766-.8789-9.1406-2.8125c-1.7578-1.0547-4.2188-2.8125-7.2071-5.2734L8.4375 26.3672v32.6953z"/>
  </symbol>
</svg>